<mxfile host="app.diagrams.net" modified="2022-04-12T06:58:28.541Z" agent="5.0 (Macintosh; Intel Mac OS X 10_15_7) AppleWebKit/537.36 (KHTML, like Gecko) Chrome/99.0.4844.51 Safari/537.36" etag="PAXJkIo_nk7EH7bikLPQ" version="17.4.3" type="github" pages="3">
  <diagram id="fxYIC-l14unwPxHLsKk7" name="第 1 页">
    <mxGraphModel dx="1581" dy="884" grid="1" gridSize="10" guides="1" tooltips="1" connect="1" arrows="1" fold="1" page="1" pageScale="1" pageWidth="827" pageHeight="1169" math="0" shadow="0">
      <root>
        <mxCell id="0" />
        <mxCell id="1" parent="0" />
        <mxCell id="Ugl9uYvxQiId3nw6APR2-1" value="" style="swimlane;startSize=0;dashed=1;" vertex="1" parent="1">
          <mxGeometry x="30" y="20" width="770" height="200" as="geometry" />
        </mxCell>
        <mxCell id="Ugl9uYvxQiId3nw6APR2-2" value="外部互联网" style="text;html=1;align=center;verticalAlign=middle;resizable=0;points=[];autosize=1;strokeColor=none;fillColor=none;" vertex="1" parent="Ugl9uYvxQiId3nw6APR2-1">
          <mxGeometry x="690" width="80" height="20" as="geometry" />
        </mxCell>
        <mxCell id="Ugl9uYvxQiId3nw6APR2-3" value="员工APP" style="rounded=1;whiteSpace=wrap;html=1;dashed=1;" vertex="1" parent="Ugl9uYvxQiId3nw6APR2-1">
          <mxGeometry x="40" y="20" width="120" height="60" as="geometry" />
        </mxCell>
        <mxCell id="PqRMCvxVc-aRRlHkbQo4-2" value="已登录情况，带&lt;br&gt;着用户信息加&lt;br&gt;密参数params" style="text;html=1;align=center;verticalAlign=middle;resizable=0;points=[];autosize=1;strokeColor=none;fillColor=none;fontColor=#000000;" vertex="1" parent="Ugl9uYvxQiId3nw6APR2-1">
          <mxGeometry x="370" y="105" width="100" height="50" as="geometry" />
        </mxCell>
        <mxCell id="Ugl9uYvxQiId3nw6APR2-4" value="" style="swimlane;startSize=0;dashed=1;strokeColor=#CC0066;" vertex="1" parent="1">
          <mxGeometry x="30" y="260" width="200" height="320" as="geometry" />
        </mxCell>
        <mxCell id="Ugl9uYvxQiId3nw6APR2-5" value="稻香湖私有云隔离区" style="text;html=1;align=center;verticalAlign=middle;resizable=0;points=[];autosize=1;strokeColor=none;fillColor=none;" vertex="1" parent="Ugl9uYvxQiId3nw6APR2-4">
          <mxGeometry x="30" y="300" width="120" height="20" as="geometry" />
        </mxCell>
        <mxCell id="Ugl9uYvxQiId3nw6APR2-6" value="ECIP互联网AP集群" style="rounded=1;whiteSpace=wrap;html=1;dashed=1;strokeColor=#CC0066;" vertex="1" parent="Ugl9uYvxQiId3nw6APR2-4">
          <mxGeometry x="40" y="20" width="120" height="60" as="geometry" />
        </mxCell>
        <mxCell id="Ugl9uYvxQiId3nw6APR2-7" value="UASS单点登录" style="rounded=1;whiteSpace=wrap;html=1;dashed=1;strokeColor=#CC0066;" vertex="1" parent="Ugl9uYvxQiId3nw6APR2-4">
          <mxGeometry x="40" y="200" width="120" height="60" as="geometry" />
        </mxCell>
        <mxCell id="Ugl9uYvxQiId3nw6APR2-8" value="" style="endArrow=classic;startArrow=classic;html=1;rounded=0;exitX=0.5;exitY=0;exitDx=0;exitDy=0;" edge="1" parent="Ugl9uYvxQiId3nw6APR2-4" source="Ugl9uYvxQiId3nw6APR2-7">
          <mxGeometry width="50" height="50" relative="1" as="geometry">
            <mxPoint x="50" y="130" as="sourcePoint" />
            <mxPoint x="100" y="80" as="targetPoint" />
          </mxGeometry>
        </mxCell>
        <mxCell id="Ugl9uYvxQiId3nw6APR2-26" value="" style="endArrow=classic;startArrow=classic;html=1;rounded=0;fontColor=#000000;entryX=0;entryY=0.5;entryDx=0;entryDy=0;" edge="1" parent="Ugl9uYvxQiId3nw6APR2-4" target="PqRMCvxVc-aRRlHkbQo4-3">
          <mxGeometry width="50" height="50" relative="1" as="geometry">
            <mxPoint x="160" y="230" as="sourcePoint" />
            <mxPoint x="210" y="180" as="targetPoint" />
            <Array as="points">
              <mxPoint x="230" y="230" />
              <mxPoint x="230" y="270" />
            </Array>
          </mxGeometry>
        </mxCell>
        <mxCell id="Ugl9uYvxQiId3nw6APR2-10" value="" style="swimlane;startSize=0;dashed=1;" vertex="1" parent="1">
          <mxGeometry x="290" y="260" width="510" height="320" as="geometry" />
        </mxCell>
        <mxCell id="Ugl9uYvxQiId3nw6APR2-11" value="P5" style="text;html=1;align=center;verticalAlign=middle;resizable=0;points=[];autosize=1;strokeColor=none;fillColor=none;" vertex="1" parent="Ugl9uYvxQiId3nw6APR2-10">
          <mxGeometry x="470" width="30" height="20" as="geometry" />
        </mxCell>
        <mxCell id="Ugl9uYvxQiId3nw6APR2-12" value="P5互联网集群&lt;br&gt;&lt;br&gt;&lt;font color=&quot;#ff00ff&quot;&gt;部署静态资源&lt;/font&gt;" style="whiteSpace=wrap;html=1;aspect=fixed;dashed=1;" vertex="1" parent="Ugl9uYvxQiId3nw6APR2-10">
          <mxGeometry x="30" y="30" width="150" height="150" as="geometry" />
        </mxCell>
        <mxCell id="Ugl9uYvxQiId3nw6APR2-13" value="P5外联区" style="whiteSpace=wrap;html=1;aspect=fixed;dashed=1;" vertex="1" parent="Ugl9uYvxQiId3nw6APR2-10">
          <mxGeometry x="300" y="30" width="150" height="150" as="geometry" />
        </mxCell>
        <mxCell id="Ugl9uYvxQiId3nw6APR2-14" value="P5AP服务" style="rounded=1;whiteSpace=wrap;html=1;dashed=1;" vertex="1" parent="Ugl9uYvxQiId3nw6APR2-10">
          <mxGeometry x="30" y="240" width="420" height="60" as="geometry" />
        </mxCell>
        <mxCell id="Ugl9uYvxQiId3nw6APR2-16" value="" style="endArrow=classic;startArrow=classic;html=1;rounded=0;fontColor=#FF00FF;" edge="1" parent="Ugl9uYvxQiId3nw6APR2-10">
          <mxGeometry width="50" height="50" relative="1" as="geometry">
            <mxPoint x="110" y="250" as="sourcePoint" />
            <mxPoint x="110" y="180" as="targetPoint" />
          </mxGeometry>
        </mxCell>
        <mxCell id="Ugl9uYvxQiId3nw6APR2-17" value="" style="endArrow=classic;startArrow=classic;html=1;rounded=0;fontColor=#FF00FF;entryX=0.587;entryY=1.023;entryDx=0;entryDy=0;entryPerimeter=0;exitX=0.852;exitY=-0.058;exitDx=0;exitDy=0;exitPerimeter=0;" edge="1" parent="Ugl9uYvxQiId3nw6APR2-10" source="Ugl9uYvxQiId3nw6APR2-14" target="Ugl9uYvxQiId3nw6APR2-13">
          <mxGeometry width="50" height="50" relative="1" as="geometry">
            <mxPoint x="390" y="230" as="sourcePoint" />
            <mxPoint x="390" y="180" as="targetPoint" />
          </mxGeometry>
        </mxCell>
        <mxCell id="PqRMCvxVc-aRRlHkbQo4-3" value="解密服务" style="rounded=0;whiteSpace=wrap;html=1;dashed=1;fontColor=#000000;strokeColor=#000000;" vertex="1" parent="Ugl9uYvxQiId3nw6APR2-10">
          <mxGeometry x="45" y="250" width="120" height="40" as="geometry" />
        </mxCell>
        <mxCell id="Ugl9uYvxQiId3nw6APR2-9" value="" style="endArrow=classic;startArrow=classic;html=1;rounded=0;exitX=0.5;exitY=0;exitDx=0;exitDy=0;entryX=0.5;entryY=1;entryDx=0;entryDy=0;" edge="1" parent="1" source="Ugl9uYvxQiId3nw6APR2-6" target="Ugl9uYvxQiId3nw6APR2-3">
          <mxGeometry width="50" height="50" relative="1" as="geometry">
            <mxPoint x="80" y="150" as="sourcePoint" />
            <mxPoint x="130" y="100" as="targetPoint" />
          </mxGeometry>
        </mxCell>
        <mxCell id="Ugl9uYvxQiId3nw6APR2-15" value="" style="endArrow=classic;html=1;rounded=0;fontColor=#FF00FF;exitX=1;exitY=0.5;exitDx=0;exitDy=0;" edge="1" parent="1" source="Ugl9uYvxQiId3nw6APR2-3">
          <mxGeometry width="50" height="50" relative="1" as="geometry">
            <mxPoint x="200" y="90" as="sourcePoint" />
            <mxPoint x="400" y="290" as="targetPoint" />
            <Array as="points">
              <mxPoint x="400" y="70" />
            </Array>
          </mxGeometry>
        </mxCell>
        <mxCell id="Ugl9uYvxQiId3nw6APR2-18" value="" style="swimlane;startSize=0;dashed=1;fontColor=#FF00FF;" vertex="1" parent="1">
          <mxGeometry x="30" y="690" width="770" height="200" as="geometry" />
        </mxCell>
        <mxCell id="Ugl9uYvxQiId3nw6APR2-19" value="&lt;font color=&quot;#000000&quot;&gt;P2 F5&lt;/font&gt;" style="whiteSpace=wrap;html=1;dashed=1;fontColor=#FF00FF;" vertex="1" parent="Ugl9uYvxQiId3nw6APR2-18">
          <mxGeometry x="300" y="10" width="120" height="30" as="geometry" />
        </mxCell>
        <mxCell id="Ugl9uYvxQiId3nw6APR2-21" value="oracle" style="shape=cylinder3;whiteSpace=wrap;html=1;boundedLbl=1;backgroundOutline=1;size=15;dashed=1;fontColor=#000000;" vertex="1" parent="Ugl9uYvxQiId3nw6APR2-18">
          <mxGeometry y="120" width="60" height="80" as="geometry" />
        </mxCell>
        <mxCell id="Ugl9uYvxQiId3nw6APR2-22" value="NAS" style="shape=cylinder3;whiteSpace=wrap;html=1;boundedLbl=1;backgroundOutline=1;size=15;dashed=1;fontColor=#000000;" vertex="1" parent="Ugl9uYvxQiId3nw6APR2-18">
          <mxGeometry x="710" y="120" width="60" height="80" as="geometry" />
        </mxCell>
        <mxCell id="Ugl9uYvxQiId3nw6APR2-23" value="P2Server" style="whiteSpace=wrap;html=1;dashed=1;fontColor=#000000;" vertex="1" parent="Ugl9uYvxQiId3nw6APR2-18">
          <mxGeometry x="300" y="130" width="120" height="60" as="geometry" />
        </mxCell>
        <mxCell id="Ugl9uYvxQiId3nw6APR2-24" value="" style="endArrow=none;html=1;rounded=0;fontColor=#000000;entryX=-0.017;entryY=0.642;entryDx=0;entryDy=0;entryPerimeter=0;" edge="1" parent="Ugl9uYvxQiId3nw6APR2-18" target="Ugl9uYvxQiId3nw6APR2-23">
          <mxGeometry width="50" height="50" relative="1" as="geometry">
            <mxPoint x="60" y="170" as="sourcePoint" />
            <mxPoint x="110" y="120" as="targetPoint" />
          </mxGeometry>
        </mxCell>
        <mxCell id="Ugl9uYvxQiId3nw6APR2-25" value="" style="endArrow=none;html=1;rounded=0;fontColor=#000000;" edge="1" parent="Ugl9uYvxQiId3nw6APR2-18">
          <mxGeometry width="50" height="50" relative="1" as="geometry">
            <mxPoint x="420" y="170" as="sourcePoint" />
            <mxPoint x="710" y="170" as="targetPoint" />
          </mxGeometry>
        </mxCell>
        <mxCell id="Ugl9uYvxQiId3nw6APR2-28" value="" style="endArrow=classic;startArrow=classic;html=1;rounded=0;fontColor=#000000;exitX=0.5;exitY=0;exitDx=0;exitDy=0;" edge="1" parent="Ugl9uYvxQiId3nw6APR2-18" source="Ugl9uYvxQiId3nw6APR2-23">
          <mxGeometry width="50" height="50" relative="1" as="geometry">
            <mxPoint x="310" y="90" as="sourcePoint" />
            <mxPoint x="360" y="100" as="targetPoint" />
          </mxGeometry>
        </mxCell>
        <mxCell id="wDpPCVe8b4VSUC-GnXIY-1" value="P2 Web" style="rounded=1;whiteSpace=wrap;html=1;dashed=1;fontColor=#000000;strokeColor=#000000;" vertex="1" parent="Ugl9uYvxQiId3nw6APR2-18">
          <mxGeometry x="300" y="70" width="120" height="30" as="geometry" />
        </mxCell>
        <mxCell id="wDpPCVe8b4VSUC-GnXIY-2" value="" style="endArrow=classic;startArrow=classic;html=1;rounded=0;fontColor=#000000;exitX=0.5;exitY=0;exitDx=0;exitDy=0;" edge="1" parent="Ugl9uYvxQiId3nw6APR2-18" source="wDpPCVe8b4VSUC-GnXIY-1">
          <mxGeometry width="50" height="50" relative="1" as="geometry">
            <mxPoint x="310" y="90" as="sourcePoint" />
            <mxPoint x="360" y="40" as="targetPoint" />
          </mxGeometry>
        </mxCell>
        <mxCell id="i8Rj4fypaABfYELcApGF-1" value="三中心每个中心670G" style="text;html=1;align=center;verticalAlign=middle;resizable=0;points=[];autosize=1;strokeColor=none;fillColor=none;fontColor=#000000;" vertex="1" parent="Ugl9uYvxQiId3nw6APR2-18">
          <mxGeometry x="580" y="140" width="130" height="20" as="geometry" />
        </mxCell>
        <mxCell id="Ugl9uYvxQiId3nw6APR2-20" value="" style="endArrow=classic;html=1;rounded=0;fontColor=#000000;exitX=0.486;exitY=1.042;exitDx=0;exitDy=0;exitPerimeter=0;entryX=0.5;entryY=0;entryDx=0;entryDy=0;" edge="1" parent="1" source="Ugl9uYvxQiId3nw6APR2-14" target="Ugl9uYvxQiId3nw6APR2-19">
          <mxGeometry width="50" height="50" relative="1" as="geometry">
            <mxPoint x="390" y="630" as="sourcePoint" />
            <mxPoint x="440" y="580" as="targetPoint" />
            <Array as="points">
              <mxPoint x="524" y="630" />
              <mxPoint x="390" y="630" />
            </Array>
          </mxGeometry>
        </mxCell>
        <mxCell id="Ugl9uYvxQiId3nw6APR2-27" value="解密用户信息" style="text;html=1;align=center;verticalAlign=middle;resizable=0;points=[];autosize=1;strokeColor=none;fillColor=none;fontColor=#000000;" vertex="1" parent="1">
          <mxGeometry x="215" y="500" width="90" height="20" as="geometry" />
        </mxCell>
        <mxCell id="PqRMCvxVc-aRRlHkbQo4-1" value="未登录情况访问，直接走单点登录进行登录" style="text;html=1;align=center;verticalAlign=middle;resizable=0;points=[];autosize=1;strokeColor=none;fillColor=none;fontColor=#000000;" vertex="1" parent="1">
          <mxGeometry x="30" y="230" width="240" height="20" as="geometry" />
        </mxCell>
      </root>
    </mxGraphModel>
  </diagram>
  <diagram id="UH04VGSTAacxjwMQr7d4" name="第 2 页">
    <mxGraphModel dx="1280" dy="715" grid="1" gridSize="10" guides="1" tooltips="1" connect="1" arrows="1" fold="1" page="1" pageScale="1" pageWidth="827" pageHeight="1169" math="0" shadow="0">
      <root>
        <mxCell id="0" />
        <mxCell id="1" parent="0" />
        <mxCell id="mcm8_Zln9FBj4yurveDY-1" value="" style="swimlane;startSize=0;dashed=1;fontColor=#000000;strokeColor=#000000;" vertex="1" parent="1">
          <mxGeometry x="40" y="30" width="760" height="210" as="geometry" />
        </mxCell>
        <mxCell id="mcm8_Zln9FBj4yurveDY-2" value="外部互联网" style="text;html=1;align=center;verticalAlign=middle;resizable=0;points=[];autosize=1;strokeColor=none;fillColor=none;fontColor=#000000;" vertex="1" parent="mcm8_Zln9FBj4yurveDY-1">
          <mxGeometry x="690" width="80" height="20" as="geometry" />
        </mxCell>
        <mxCell id="uT0jyLpB45JN8sAD5WJv-1" value="掌上网点/建行到家" style="rounded=1;whiteSpace=wrap;html=1;dashed=1;fontColor=#000000;strokeColor=#000000;" vertex="1" parent="mcm8_Zln9FBj4yurveDY-1">
          <mxGeometry x="60" y="140" width="120" height="60" as="geometry" />
        </mxCell>
        <mxCell id="uT0jyLpB45JN8sAD5WJv-2" value="掌上信用卡" style="rounded=1;whiteSpace=wrap;html=1;dashed=1;fontColor=#000000;strokeColor=#000000;" vertex="1" parent="mcm8_Zln9FBj4yurveDY-1">
          <mxGeometry x="530" y="140" width="120" height="60" as="geometry" />
        </mxCell>
        <mxCell id="uT0jyLpB45JN8sAD5WJv-3" value="" style="endArrow=classic;startArrow=classic;html=1;rounded=0;fontColor=#000000;exitX=1;exitY=0.5;exitDx=0;exitDy=0;entryX=0;entryY=0.5;entryDx=0;entryDy=0;" edge="1" parent="mcm8_Zln9FBj4yurveDY-1" source="uT0jyLpB45JN8sAD5WJv-1" target="uT0jyLpB45JN8sAD5WJv-2">
          <mxGeometry width="50" height="50" relative="1" as="geometry">
            <mxPoint x="480" y="100" as="sourcePoint" />
            <mxPoint x="540" y="50" as="targetPoint" />
          </mxGeometry>
        </mxCell>
        <mxCell id="PBgo7s__vL5HawsmyRH6-1" value="高德地图" style="rounded=1;whiteSpace=wrap;html=1;dashed=1;fontColor=#000000;strokeColor=#000000;" vertex="1" parent="mcm8_Zln9FBj4yurveDY-1">
          <mxGeometry x="60" y="20" width="120" height="60" as="geometry" />
        </mxCell>
        <mxCell id="PBgo7s__vL5HawsmyRH6-2" value="微信服务（实名认证，位置服务等）" style="rounded=1;whiteSpace=wrap;html=1;dashed=1;fontColor=#000000;strokeColor=#000000;" vertex="1" parent="mcm8_Zln9FBj4yurveDY-1">
          <mxGeometry x="290" y="20" width="120" height="60" as="geometry" />
        </mxCell>
        <mxCell id="PBgo7s__vL5HawsmyRH6-3" value="其他第三方服务" style="rounded=1;whiteSpace=wrap;html=1;dashed=1;fontColor=#000000;strokeColor=#000000;" vertex="1" parent="mcm8_Zln9FBj4yurveDY-1">
          <mxGeometry x="510" y="20" width="160" height="60" as="geometry" />
        </mxCell>
        <mxCell id="PBgo7s__vL5HawsmyRH6-4" value="" style="swimlane;startSize=0;dashed=1;fontColor=#000000;strokeColor=#000000;" vertex="1" parent="mcm8_Zln9FBj4yurveDY-1">
          <mxGeometry x="20" y="10" width="670" height="80" as="geometry" />
        </mxCell>
        <mxCell id="PBgo7s__vL5HawsmyRH6-5" value="" style="endArrow=classic;startArrow=classic;html=1;rounded=0;fontColor=#000000;exitX=0.5;exitY=0;exitDx=0;exitDy=0;" edge="1" parent="mcm8_Zln9FBj4yurveDY-1" source="uT0jyLpB45JN8sAD5WJv-1">
          <mxGeometry width="50" height="50" relative="1" as="geometry">
            <mxPoint x="70" y="140" as="sourcePoint" />
            <mxPoint x="120" y="90" as="targetPoint" />
          </mxGeometry>
        </mxCell>
        <mxCell id="PBgo7s__vL5HawsmyRH6-6" value="" style="endArrow=classic;startArrow=classic;html=1;rounded=0;fontColor=#000000;exitX=0.583;exitY=-0.028;exitDx=0;exitDy=0;exitPerimeter=0;" edge="1" parent="mcm8_Zln9FBj4yurveDY-1" source="uT0jyLpB45JN8sAD5WJv-2">
          <mxGeometry width="50" height="50" relative="1" as="geometry">
            <mxPoint x="550" y="140" as="sourcePoint" />
            <mxPoint x="600" y="90" as="targetPoint" />
          </mxGeometry>
        </mxCell>
        <mxCell id="U7dTvTwgUuAtbAlozD5D-1" value="互联跳转" style="text;html=1;align=center;verticalAlign=middle;resizable=0;points=[];autosize=1;strokeColor=none;fillColor=none;fontColor=#000000;" vertex="1" parent="mcm8_Zln9FBj4yurveDY-1">
          <mxGeometry x="310" y="150" width="60" height="20" as="geometry" />
        </mxCell>
        <mxCell id="XOoGrKn0b5mTBnXkIcHs-7" value="" style="swimlane;startSize=0;dashed=1;fontColor=#000000;strokeColor=#000000;" vertex="1" parent="1">
          <mxGeometry x="40" y="620" width="760" height="260" as="geometry" />
        </mxCell>
        <mxCell id="XOoGrKn0b5mTBnXkIcHs-8" value="oracle" style="shape=cylinder3;whiteSpace=wrap;html=1;boundedLbl=1;backgroundOutline=1;size=15;dashed=1;fontColor=#000000;strokeColor=#000000;" vertex="1" parent="XOoGrKn0b5mTBnXkIcHs-7">
          <mxGeometry y="180" width="60" height="80" as="geometry" />
        </mxCell>
        <mxCell id="XOoGrKn0b5mTBnXkIcHs-9" value="P2 P5" style="rounded=1;whiteSpace=wrap;html=1;dashed=1;fontColor=#000000;strokeColor=#000000;" vertex="1" parent="XOoGrKn0b5mTBnXkIcHs-7">
          <mxGeometry x="300" y="10" width="120" height="30" as="geometry" />
        </mxCell>
        <mxCell id="XOoGrKn0b5mTBnXkIcHs-10" value="P2 Web" style="rounded=1;whiteSpace=wrap;html=1;dashed=1;fontColor=#000000;strokeColor=#000000;" vertex="1" parent="XOoGrKn0b5mTBnXkIcHs-7">
          <mxGeometry x="300" y="80" width="120" height="40" as="geometry" />
        </mxCell>
        <mxCell id="XOoGrKn0b5mTBnXkIcHs-11" value="P2Server" style="rounded=1;whiteSpace=wrap;html=1;dashed=1;fontColor=#000000;strokeColor=#000000;" vertex="1" parent="XOoGrKn0b5mTBnXkIcHs-7">
          <mxGeometry x="300" y="190" width="120" height="60" as="geometry" />
        </mxCell>
        <mxCell id="XOoGrKn0b5mTBnXkIcHs-13" value="" style="endArrow=classic;startArrow=classic;html=1;rounded=0;fontColor=#000000;exitX=0.5;exitY=0;exitDx=0;exitDy=0;" edge="1" parent="XOoGrKn0b5mTBnXkIcHs-7" source="XOoGrKn0b5mTBnXkIcHs-10">
          <mxGeometry width="50" height="50" relative="1" as="geometry">
            <mxPoint x="310" y="90" as="sourcePoint" />
            <mxPoint x="360" y="40" as="targetPoint" />
          </mxGeometry>
        </mxCell>
        <mxCell id="XOoGrKn0b5mTBnXkIcHs-14" value="" style="endArrow=classic;startArrow=classic;html=1;rounded=0;fontColor=#000000;exitX=0.5;exitY=0;exitDx=0;exitDy=0;" edge="1" parent="XOoGrKn0b5mTBnXkIcHs-7" source="XOoGrKn0b5mTBnXkIcHs-11">
          <mxGeometry width="50" height="50" relative="1" as="geometry">
            <mxPoint x="310" y="170" as="sourcePoint" />
            <mxPoint x="360" y="120" as="targetPoint" />
          </mxGeometry>
        </mxCell>
        <mxCell id="XOoGrKn0b5mTBnXkIcHs-15" value="" style="endArrow=none;html=1;rounded=0;fontColor=#000000;entryX=-0.008;entryY=0.642;entryDx=0;entryDy=0;entryPerimeter=0;" edge="1" parent="XOoGrKn0b5mTBnXkIcHs-7" target="XOoGrKn0b5mTBnXkIcHs-11">
          <mxGeometry width="50" height="50" relative="1" as="geometry">
            <mxPoint x="60" y="230" as="sourcePoint" />
            <mxPoint x="110" y="180" as="targetPoint" />
          </mxGeometry>
        </mxCell>
        <mxCell id="XOoGrKn0b5mTBnXkIcHs-16" value="NAS" style="shape=cylinder3;whiteSpace=wrap;html=1;boundedLbl=1;backgroundOutline=1;size=15;dashed=1;fontColor=#000000;strokeColor=#000000;" vertex="1" parent="XOoGrKn0b5mTBnXkIcHs-7">
          <mxGeometry x="700" y="180" width="60" height="80" as="geometry" />
        </mxCell>
        <mxCell id="XOoGrKn0b5mTBnXkIcHs-17" value="" style="endArrow=none;html=1;rounded=0;fontColor=#000000;" edge="1" parent="XOoGrKn0b5mTBnXkIcHs-7">
          <mxGeometry width="50" height="50" relative="1" as="geometry">
            <mxPoint x="420" y="230" as="sourcePoint" />
            <mxPoint x="700" y="230" as="targetPoint" />
          </mxGeometry>
        </mxCell>
        <mxCell id="XOoGrKn0b5mTBnXkIcHs-18" value="私有云开放区" style="text;html=1;align=center;verticalAlign=middle;resizable=0;points=[];autosize=1;strokeColor=none;fillColor=none;fontColor=#000000;" vertex="1" parent="XOoGrKn0b5mTBnXkIcHs-7">
          <mxGeometry x="670" width="90" height="20" as="geometry" />
        </mxCell>
        <mxCell id="qtngtxtrrzAJN4FOzW6x-1" value="每日大约640G，保存1天-1月" style="text;html=1;align=center;verticalAlign=middle;resizable=0;points=[];autosize=1;strokeColor=none;fillColor=none;fontColor=#000000;" vertex="1" parent="1">
          <mxGeometry x="575" y="820" width="170" height="20" as="geometry" />
        </mxCell>
        <mxCell id="-eisz2jrGjkrt2OWroD8-1" value="" style="swimlane;startSize=0;dashed=1;" vertex="1" parent="1">
          <mxGeometry x="40" y="260" width="760" height="320" as="geometry" />
        </mxCell>
        <mxCell id="-eisz2jrGjkrt2OWroD8-2" value="P5" style="text;html=1;align=center;verticalAlign=middle;resizable=0;points=[];autosize=1;strokeColor=none;fillColor=none;" vertex="1" parent="-eisz2jrGjkrt2OWroD8-1">
          <mxGeometry x="730" y="300" width="30" height="20" as="geometry" />
        </mxCell>
        <mxCell id="-eisz2jrGjkrt2OWroD8-3" value="P5外联区" style="whiteSpace=wrap;html=1;aspect=fixed;dashed=1;" vertex="1" parent="-eisz2jrGjkrt2OWroD8-1">
          <mxGeometry x="640" y="80" width="110" height="110" as="geometry" />
        </mxCell>
        <mxCell id="-eisz2jrGjkrt2OWroD8-4" value="" style="rounded=1;whiteSpace=wrap;html=1;dashed=1;" vertex="1" parent="-eisz2jrGjkrt2OWroD8-1">
          <mxGeometry x="30" y="240" width="590" height="60" as="geometry" />
        </mxCell>
        <mxCell id="-eisz2jrGjkrt2OWroD8-7" value="员工APP AP" style="rounded=0;whiteSpace=wrap;html=1;dashed=1;fontColor=#000000;strokeColor=#000000;" vertex="1" parent="-eisz2jrGjkrt2OWroD8-1">
          <mxGeometry x="130" y="250" width="120" height="40" as="geometry" />
        </mxCell>
        <mxCell id="-eisz2jrGjkrt2OWroD8-8" value="" style="swimlane;startSize=0;dashed=1;fontColor=#000000;strokeColor=#000000;" vertex="1" parent="-eisz2jrGjkrt2OWroD8-1">
          <mxGeometry x="24" y="10" width="726" height="40" as="geometry" />
        </mxCell>
        <mxCell id="-eisz2jrGjkrt2OWroD8-9" value="P5 掌上网点 F5" style="whiteSpace=wrap;html=1;dashed=1;fontColor=#000000;strokeColor=#000000;" vertex="1" parent="-eisz2jrGjkrt2OWroD8-8">
          <mxGeometry x="302" y="5" width="95" height="30" as="geometry" />
        </mxCell>
        <mxCell id="-eisz2jrGjkrt2OWroD8-10" value="P5 员工APP F5" style="whiteSpace=wrap;html=1;dashed=1;fontColor=#000000;strokeColor=#000000;" vertex="1" parent="-eisz2jrGjkrt2OWroD8-8">
          <mxGeometry x="33.5" y="5" width="95" height="30" as="geometry" />
        </mxCell>
        <mxCell id="-eisz2jrGjkrt2OWroD8-11" value="P5 原有 F5" style="whiteSpace=wrap;html=1;dashed=1;fontColor=#000000;strokeColor=#000000;" vertex="1" parent="-eisz2jrGjkrt2OWroD8-8">
          <mxGeometry x="566" y="5" width="95" height="30" as="geometry" />
        </mxCell>
        <mxCell id="-eisz2jrGjkrt2OWroD8-12" value="" style="swimlane;startSize=0;dashed=1;fontColor=#000000;strokeColor=#000000;" vertex="1" parent="-eisz2jrGjkrt2OWroD8-1">
          <mxGeometry x="24" y="70" width="596" height="130" as="geometry" />
        </mxCell>
        <mxCell id="-eisz2jrGjkrt2OWroD8-13" value="P5Web集群&lt;br&gt;&lt;br&gt;原有Web服务" style="whiteSpace=wrap;html=1;aspect=fixed;dashed=1;" vertex="1" parent="-eisz2jrGjkrt2OWroD8-12">
          <mxGeometry x="456" y="15" width="100" height="100" as="geometry" />
        </mxCell>
        <mxCell id="-eisz2jrGjkrt2OWroD8-14" value="P5Web集群&lt;br&gt;&lt;br&gt;&lt;font color=&quot;#ff00ff&quot;&gt;掌上信用卡静&lt;br&gt;态资源&lt;/font&gt;" style="whiteSpace=wrap;html=1;aspect=fixed;dashed=1;" vertex="1" parent="-eisz2jrGjkrt2OWroD8-12">
          <mxGeometry x="300" y="15" width="100" height="100" as="geometry" />
        </mxCell>
        <mxCell id="-eisz2jrGjkrt2OWroD8-15" value="P5Web集群&lt;br&gt;&lt;br&gt;&lt;font color=&quot;#ff00ff&quot;&gt;员工APP静态资源&lt;/font&gt;" style="whiteSpace=wrap;html=1;aspect=fixed;dashed=1;" vertex="1" parent="-eisz2jrGjkrt2OWroD8-12">
          <mxGeometry x="116" y="15" width="100" height="100" as="geometry" />
        </mxCell>
        <mxCell id="-eisz2jrGjkrt2OWroD8-17" value="掌上网点Ap" style="rounded=1;whiteSpace=wrap;html=1;dashed=1;fontColor=#000000;strokeColor=#000000;" vertex="1" parent="-eisz2jrGjkrt2OWroD8-1">
          <mxGeometry x="314" y="250" width="120" height="40" as="geometry" />
        </mxCell>
        <mxCell id="-eisz2jrGjkrt2OWroD8-18" value="P8交易调用AP" style="rounded=1;whiteSpace=wrap;html=1;dashed=1;fontColor=#000000;strokeColor=#000000;" vertex="1" parent="-eisz2jrGjkrt2OWroD8-1">
          <mxGeometry x="490" y="250" width="120" height="40" as="geometry" />
        </mxCell>
        <mxCell id="-eisz2jrGjkrt2OWroD8-20" value="" style="endArrow=classic;startArrow=classic;html=1;rounded=0;fontColor=#000000;exitX=0.5;exitY=0;exitDx=0;exitDy=0;" edge="1" parent="-eisz2jrGjkrt2OWroD8-1" source="-eisz2jrGjkrt2OWroD8-14" target="-eisz2jrGjkrt2OWroD8-9">
          <mxGeometry width="50" height="50" relative="1" as="geometry">
            <mxPoint x="324" y="90" as="sourcePoint" />
            <mxPoint x="374" y="40" as="targetPoint" />
          </mxGeometry>
        </mxCell>
        <mxCell id="-eisz2jrGjkrt2OWroD8-21" value="" style="endArrow=classic;startArrow=classic;html=1;rounded=0;fontColor=#000000;exitX=1;exitY=0.5;exitDx=0;exitDy=0;" edge="1" parent="-eisz2jrGjkrt2OWroD8-1" source="-eisz2jrGjkrt2OWroD8-4">
          <mxGeometry width="50" height="50" relative="1" as="geometry">
            <mxPoint x="650" y="240" as="sourcePoint" />
            <mxPoint x="700" y="190" as="targetPoint" />
            <Array as="points">
              <mxPoint x="700" y="270" />
            </Array>
          </mxGeometry>
        </mxCell>
        <mxCell id="-eisz2jrGjkrt2OWroD8-22" value="" style="endArrow=classic;startArrow=classic;html=1;rounded=0;fontColor=#000000;entryX=0.5;entryY=1;entryDx=0;entryDy=0;" edge="1" parent="-eisz2jrGjkrt2OWroD8-1" target="-eisz2jrGjkrt2OWroD8-14">
          <mxGeometry width="50" height="50" relative="1" as="geometry">
            <mxPoint x="373" y="250" as="sourcePoint" />
            <mxPoint x="423" y="200" as="targetPoint" />
          </mxGeometry>
        </mxCell>
        <mxCell id="-eisz2jrGjkrt2OWroD8-19" value="" style="endArrow=classic;startArrow=classic;html=1;rounded=0;fontColor=#000000;entryX=0.5;entryY=1;entryDx=0;entryDy=0;exitX=0.5;exitY=0;exitDx=0;exitDy=0;" edge="1" parent="1" source="-eisz2jrGjkrt2OWroD8-9" target="uT0jyLpB45JN8sAD5WJv-2">
          <mxGeometry width="50" height="50" relative="1" as="geometry">
            <mxPoint x="413" y="280" as="sourcePoint" />
            <mxPoint x="463" y="230" as="targetPoint" />
            <Array as="points">
              <mxPoint x="414" y="250" />
              <mxPoint x="630" y="250" />
            </Array>
          </mxGeometry>
        </mxCell>
        <mxCell id="-eisz2jrGjkrt2OWroD8-23" value="" style="endArrow=classic;startArrow=classic;html=1;rounded=0;fontColor=#000000;exitX=0.5;exitY=0;exitDx=0;exitDy=0;entryX=0.383;entryY=1.018;entryDx=0;entryDy=0;entryPerimeter=0;" edge="1" parent="1" source="XOoGrKn0b5mTBnXkIcHs-9" target="-eisz2jrGjkrt2OWroD8-17">
          <mxGeometry width="50" height="50" relative="1" as="geometry">
            <mxPoint x="364" y="600" as="sourcePoint" />
            <mxPoint x="414" y="550" as="targetPoint" />
          </mxGeometry>
        </mxCell>
      </root>
    </mxGraphModel>
  </diagram>
  <diagram id="fpkB4kQL59SjW4RZ-F0n" name="第 3 页">
    <mxGraphModel dx="1120" dy="626" grid="1" gridSize="10" guides="1" tooltips="1" connect="1" arrows="1" fold="1" page="1" pageScale="1" pageWidth="827" pageHeight="1169" math="0" shadow="0">
      <root>
        <mxCell id="0" />
        <mxCell id="1" parent="0" />
        <mxCell id="7Pbh5oCqQY8hPfmPGfme-1" value="" style="swimlane;startSize=0;dashed=1;" vertex="1" parent="1">
          <mxGeometry x="30" y="20" width="770" height="200" as="geometry" />
        </mxCell>
        <mxCell id="7Pbh5oCqQY8hPfmPGfme-2" value="外部互联网" style="text;html=1;align=center;verticalAlign=middle;resizable=0;points=[];autosize=1;strokeColor=none;fillColor=none;" vertex="1" parent="7Pbh5oCqQY8hPfmPGfme-1">
          <mxGeometry x="690" width="80" height="20" as="geometry" />
        </mxCell>
        <mxCell id="7Pbh5oCqQY8hPfmPGfme-3" value="员工APP" style="rounded=1;whiteSpace=wrap;html=1;dashed=1;" vertex="1" parent="7Pbh5oCqQY8hPfmPGfme-1">
          <mxGeometry x="40" y="20" width="120" height="60" as="geometry" />
        </mxCell>
        <mxCell id="7Pbh5oCqQY8hPfmPGfme-4" value="已登录情况，带&lt;br&gt;着用户信息加&lt;br&gt;密参数params" style="text;html=1;align=center;verticalAlign=middle;resizable=0;points=[];autosize=1;strokeColor=none;fillColor=none;fontColor=#000000;" vertex="1" parent="7Pbh5oCqQY8hPfmPGfme-1">
          <mxGeometry x="370" y="105" width="100" height="50" as="geometry" />
        </mxCell>
        <mxCell id="7Pbh5oCqQY8hPfmPGfme-5" value="" style="swimlane;startSize=0;dashed=1;strokeColor=#CC0066;" vertex="1" parent="1">
          <mxGeometry x="30" y="260" width="200" height="320" as="geometry" />
        </mxCell>
        <mxCell id="7Pbh5oCqQY8hPfmPGfme-6" value="稻香湖私有云隔离区" style="text;html=1;align=center;verticalAlign=middle;resizable=0;points=[];autosize=1;strokeColor=none;fillColor=none;" vertex="1" parent="7Pbh5oCqQY8hPfmPGfme-5">
          <mxGeometry x="30" y="300" width="120" height="20" as="geometry" />
        </mxCell>
        <mxCell id="7Pbh5oCqQY8hPfmPGfme-7" value="ECIP互联网AP集群" style="rounded=1;whiteSpace=wrap;html=1;dashed=1;strokeColor=#CC0066;" vertex="1" parent="7Pbh5oCqQY8hPfmPGfme-5">
          <mxGeometry x="40" y="20" width="120" height="60" as="geometry" />
        </mxCell>
        <mxCell id="7Pbh5oCqQY8hPfmPGfme-8" value="UASS单点登录" style="rounded=1;whiteSpace=wrap;html=1;dashed=1;strokeColor=#CC0066;" vertex="1" parent="7Pbh5oCqQY8hPfmPGfme-5">
          <mxGeometry x="40" y="200" width="120" height="60" as="geometry" />
        </mxCell>
        <mxCell id="7Pbh5oCqQY8hPfmPGfme-9" value="" style="endArrow=classic;startArrow=classic;html=1;rounded=0;exitX=0.5;exitY=0;exitDx=0;exitDy=0;" edge="1" parent="7Pbh5oCqQY8hPfmPGfme-5" source="7Pbh5oCqQY8hPfmPGfme-8">
          <mxGeometry width="50" height="50" relative="1" as="geometry">
            <mxPoint x="50" y="130" as="sourcePoint" />
            <mxPoint x="100" y="80" as="targetPoint" />
          </mxGeometry>
        </mxCell>
        <mxCell id="7Pbh5oCqQY8hPfmPGfme-10" value="" style="endArrow=classic;startArrow=classic;html=1;rounded=0;fontColor=#000000;entryX=0;entryY=0.5;entryDx=0;entryDy=0;" edge="1" parent="7Pbh5oCqQY8hPfmPGfme-5" target="7Pbh5oCqQY8hPfmPGfme-18">
          <mxGeometry width="50" height="50" relative="1" as="geometry">
            <mxPoint x="160" y="230" as="sourcePoint" />
            <mxPoint x="210" y="180" as="targetPoint" />
            <Array as="points">
              <mxPoint x="230" y="230" />
              <mxPoint x="230" y="270" />
            </Array>
          </mxGeometry>
        </mxCell>
        <mxCell id="7Pbh5oCqQY8hPfmPGfme-11" value="" style="swimlane;startSize=0;dashed=1;" vertex="1" parent="1">
          <mxGeometry x="290" y="260" width="510" height="320" as="geometry" />
        </mxCell>
        <mxCell id="7Pbh5oCqQY8hPfmPGfme-12" value="P5" style="text;html=1;align=center;verticalAlign=middle;resizable=0;points=[];autosize=1;strokeColor=none;fillColor=none;" vertex="1" parent="7Pbh5oCqQY8hPfmPGfme-11">
          <mxGeometry x="470" width="30" height="20" as="geometry" />
        </mxCell>
        <mxCell id="7Pbh5oCqQY8hPfmPGfme-14" value="P5外联区" style="whiteSpace=wrap;html=1;aspect=fixed;dashed=1;" vertex="1" parent="7Pbh5oCqQY8hPfmPGfme-11">
          <mxGeometry x="445" y="120" width="60" height="60" as="geometry" />
        </mxCell>
        <mxCell id="7Pbh5oCqQY8hPfmPGfme-15" value="" style="rounded=1;whiteSpace=wrap;html=1;dashed=1;" vertex="1" parent="7Pbh5oCqQY8hPfmPGfme-11">
          <mxGeometry x="30" y="240" width="420" height="60" as="geometry" />
        </mxCell>
        <mxCell id="7Pbh5oCqQY8hPfmPGfme-16" value="" style="endArrow=classic;startArrow=classic;html=1;rounded=0;fontColor=#FF00FF;" edge="1" parent="7Pbh5oCqQY8hPfmPGfme-11">
          <mxGeometry width="50" height="50" relative="1" as="geometry">
            <mxPoint x="110" y="250" as="sourcePoint" />
            <mxPoint x="110" y="190" as="targetPoint" />
          </mxGeometry>
        </mxCell>
        <mxCell id="7Pbh5oCqQY8hPfmPGfme-17" value="" style="endArrow=classic;startArrow=classic;html=1;rounded=0;fontColor=#FF00FF;entryX=0.587;entryY=1.023;entryDx=0;entryDy=0;entryPerimeter=0;exitX=1;exitY=0.5;exitDx=0;exitDy=0;" edge="1" parent="7Pbh5oCqQY8hPfmPGfme-11" source="7Pbh5oCqQY8hPfmPGfme-15" target="7Pbh5oCqQY8hPfmPGfme-14">
          <mxGeometry width="50" height="50" relative="1" as="geometry">
            <mxPoint x="390" y="230" as="sourcePoint" />
            <mxPoint x="390" y="180" as="targetPoint" />
            <Array as="points">
              <mxPoint x="480" y="270" />
            </Array>
          </mxGeometry>
        </mxCell>
        <mxCell id="7Pbh5oCqQY8hPfmPGfme-18" value="员工APP解密服务AP" style="rounded=0;whiteSpace=wrap;html=1;dashed=1;fontColor=#000000;strokeColor=#000000;" vertex="1" parent="7Pbh5oCqQY8hPfmPGfme-11">
          <mxGeometry x="45" y="250" width="120" height="40" as="geometry" />
        </mxCell>
        <mxCell id="7Pbh5oCqQY8hPfmPGfme-74" value="" style="swimlane;startSize=0;dashed=1;fontColor=#000000;strokeColor=#000000;" vertex="1" parent="7Pbh5oCqQY8hPfmPGfme-11">
          <mxGeometry x="24" y="10" width="436" height="40" as="geometry" />
        </mxCell>
        <mxCell id="7Pbh5oCqQY8hPfmPGfme-71" value="P5 掌上网点 F5" style="whiteSpace=wrap;html=1;dashed=1;fontColor=#000000;strokeColor=#000000;" vertex="1" parent="7Pbh5oCqQY8hPfmPGfme-74">
          <mxGeometry x="166" y="5" width="95" height="30" as="geometry" />
        </mxCell>
        <mxCell id="7Pbh5oCqQY8hPfmPGfme-35" value="P5 员工APP F5" style="whiteSpace=wrap;html=1;dashed=1;fontColor=#000000;strokeColor=#000000;" vertex="1" parent="7Pbh5oCqQY8hPfmPGfme-74">
          <mxGeometry x="33.5" y="5" width="95" height="30" as="geometry" />
        </mxCell>
        <mxCell id="7Pbh5oCqQY8hPfmPGfme-72" value="P5 原有 F5" style="whiteSpace=wrap;html=1;dashed=1;fontColor=#000000;strokeColor=#000000;" vertex="1" parent="7Pbh5oCqQY8hPfmPGfme-74">
          <mxGeometry x="326" y="5" width="95" height="30" as="geometry" />
        </mxCell>
        <mxCell id="7Pbh5oCqQY8hPfmPGfme-77" value="" style="swimlane;startSize=0;dashed=1;fontColor=#000000;strokeColor=#000000;" vertex="1" parent="7Pbh5oCqQY8hPfmPGfme-11">
          <mxGeometry x="24" y="70" width="400" height="130" as="geometry" />
        </mxCell>
        <mxCell id="7Pbh5oCqQY8hPfmPGfme-75" value="P5Web集群&lt;br&gt;&lt;br&gt;原有Web服务" style="whiteSpace=wrap;html=1;aspect=fixed;dashed=1;" vertex="1" parent="7Pbh5oCqQY8hPfmPGfme-77">
          <mxGeometry x="286" y="20" width="100" height="100" as="geometry" />
        </mxCell>
        <mxCell id="7Pbh5oCqQY8hPfmPGfme-73" value="P5Web集群&lt;br&gt;&lt;br&gt;&lt;font color=&quot;#ff00ff&quot;&gt;掌上信用卡静&lt;br&gt;态资源&lt;/font&gt;" style="whiteSpace=wrap;html=1;aspect=fixed;dashed=1;" vertex="1" parent="7Pbh5oCqQY8hPfmPGfme-77">
          <mxGeometry x="166" y="20" width="100" height="100" as="geometry" />
        </mxCell>
        <mxCell id="7Pbh5oCqQY8hPfmPGfme-13" value="P5Web集群&lt;br&gt;&lt;br&gt;&lt;font color=&quot;#ff00ff&quot;&gt;员工APP静态资源&lt;/font&gt;" style="whiteSpace=wrap;html=1;aspect=fixed;dashed=1;" vertex="1" parent="7Pbh5oCqQY8hPfmPGfme-77">
          <mxGeometry x="26" y="20" width="100" height="100" as="geometry" />
        </mxCell>
        <mxCell id="7Pbh5oCqQY8hPfmPGfme-78" value="" style="endArrow=classic;startArrow=classic;html=1;rounded=0;fontColor=#000000;entryX=0.5;entryY=1;entryDx=0;entryDy=0;exitX=0.55;exitY=0;exitDx=0;exitDy=0;exitPerimeter=0;" edge="1" parent="7Pbh5oCqQY8hPfmPGfme-11" source="7Pbh5oCqQY8hPfmPGfme-13" target="7Pbh5oCqQY8hPfmPGfme-35">
          <mxGeometry width="50" height="50" relative="1" as="geometry">
            <mxPoint x="105" y="80" as="sourcePoint" />
            <mxPoint x="149" y="30" as="targetPoint" />
          </mxGeometry>
        </mxCell>
        <mxCell id="7Pbh5oCqQY8hPfmPGfme-79" value="掌上网点Ap" style="rounded=1;whiteSpace=wrap;html=1;dashed=1;fontColor=#000000;strokeColor=#000000;" vertex="1" parent="7Pbh5oCqQY8hPfmPGfme-11">
          <mxGeometry x="190" y="250" width="120" height="40" as="geometry" />
        </mxCell>
        <mxCell id="7Pbh5oCqQY8hPfmPGfme-80" value="P8交易调用AP" style="rounded=1;whiteSpace=wrap;html=1;dashed=1;fontColor=#000000;strokeColor=#000000;" vertex="1" parent="7Pbh5oCqQY8hPfmPGfme-11">
          <mxGeometry x="325" y="250" width="120" height="40" as="geometry" />
        </mxCell>
        <mxCell id="7Pbh5oCqQY8hPfmPGfme-19" value="" style="endArrow=classic;startArrow=classic;html=1;rounded=0;exitX=0.5;exitY=0;exitDx=0;exitDy=0;entryX=0.5;entryY=1;entryDx=0;entryDy=0;" edge="1" parent="1" source="7Pbh5oCqQY8hPfmPGfme-7" target="7Pbh5oCqQY8hPfmPGfme-3">
          <mxGeometry width="50" height="50" relative="1" as="geometry">
            <mxPoint x="80" y="150" as="sourcePoint" />
            <mxPoint x="130" y="100" as="targetPoint" />
          </mxGeometry>
        </mxCell>
        <mxCell id="7Pbh5oCqQY8hPfmPGfme-20" value="" style="endArrow=classic;html=1;rounded=0;fontColor=#FF00FF;exitX=1;exitY=0.5;exitDx=0;exitDy=0;entryX=0.181;entryY=-0.112;entryDx=0;entryDy=0;entryPerimeter=0;" edge="1" parent="1" source="7Pbh5oCqQY8hPfmPGfme-3" target="7Pbh5oCqQY8hPfmPGfme-74">
          <mxGeometry width="50" height="50" relative="1" as="geometry">
            <mxPoint x="200" y="90" as="sourcePoint" />
            <mxPoint x="393" y="240" as="targetPoint" />
            <Array as="points">
              <mxPoint x="393" y="70" />
            </Array>
          </mxGeometry>
        </mxCell>
        <mxCell id="7Pbh5oCqQY8hPfmPGfme-21" value="" style="swimlane;startSize=0;dashed=1;fontColor=#FF00FF;" vertex="1" parent="1">
          <mxGeometry x="30" y="690" width="770" height="200" as="geometry" />
        </mxCell>
        <mxCell id="7Pbh5oCqQY8hPfmPGfme-22" value="&lt;font color=&quot;#000000&quot;&gt;P2 F5&lt;/font&gt;" style="whiteSpace=wrap;html=1;dashed=1;fontColor=#FF00FF;" vertex="1" parent="7Pbh5oCqQY8hPfmPGfme-21">
          <mxGeometry x="300" y="10" width="120" height="30" as="geometry" />
        </mxCell>
        <mxCell id="7Pbh5oCqQY8hPfmPGfme-23" value="oracle" style="shape=cylinder3;whiteSpace=wrap;html=1;boundedLbl=1;backgroundOutline=1;size=15;dashed=1;fontColor=#000000;" vertex="1" parent="7Pbh5oCqQY8hPfmPGfme-21">
          <mxGeometry y="120" width="60" height="80" as="geometry" />
        </mxCell>
        <mxCell id="7Pbh5oCqQY8hPfmPGfme-24" value="NAS" style="shape=cylinder3;whiteSpace=wrap;html=1;boundedLbl=1;backgroundOutline=1;size=15;dashed=1;fontColor=#000000;" vertex="1" parent="7Pbh5oCqQY8hPfmPGfme-21">
          <mxGeometry x="710" y="120" width="60" height="80" as="geometry" />
        </mxCell>
        <mxCell id="7Pbh5oCqQY8hPfmPGfme-25" value="P2Server" style="whiteSpace=wrap;html=1;dashed=1;fontColor=#000000;" vertex="1" parent="7Pbh5oCqQY8hPfmPGfme-21">
          <mxGeometry x="300" y="130" width="120" height="60" as="geometry" />
        </mxCell>
        <mxCell id="7Pbh5oCqQY8hPfmPGfme-26" value="" style="endArrow=none;html=1;rounded=0;fontColor=#000000;entryX=-0.017;entryY=0.642;entryDx=0;entryDy=0;entryPerimeter=0;" edge="1" parent="7Pbh5oCqQY8hPfmPGfme-21" target="7Pbh5oCqQY8hPfmPGfme-25">
          <mxGeometry width="50" height="50" relative="1" as="geometry">
            <mxPoint x="60" y="170" as="sourcePoint" />
            <mxPoint x="110" y="120" as="targetPoint" />
          </mxGeometry>
        </mxCell>
        <mxCell id="7Pbh5oCqQY8hPfmPGfme-27" value="" style="endArrow=none;html=1;rounded=0;fontColor=#000000;" edge="1" parent="7Pbh5oCqQY8hPfmPGfme-21">
          <mxGeometry width="50" height="50" relative="1" as="geometry">
            <mxPoint x="420" y="170" as="sourcePoint" />
            <mxPoint x="710" y="170" as="targetPoint" />
          </mxGeometry>
        </mxCell>
        <mxCell id="7Pbh5oCqQY8hPfmPGfme-28" value="" style="endArrow=classic;startArrow=classic;html=1;rounded=0;fontColor=#000000;exitX=0.5;exitY=0;exitDx=0;exitDy=0;" edge="1" parent="7Pbh5oCqQY8hPfmPGfme-21" source="7Pbh5oCqQY8hPfmPGfme-25">
          <mxGeometry width="50" height="50" relative="1" as="geometry">
            <mxPoint x="310" y="90" as="sourcePoint" />
            <mxPoint x="360" y="100" as="targetPoint" />
          </mxGeometry>
        </mxCell>
        <mxCell id="7Pbh5oCqQY8hPfmPGfme-29" value="P2 Web" style="rounded=1;whiteSpace=wrap;html=1;dashed=1;fontColor=#000000;strokeColor=#000000;" vertex="1" parent="7Pbh5oCqQY8hPfmPGfme-21">
          <mxGeometry x="300" y="70" width="120" height="30" as="geometry" />
        </mxCell>
        <mxCell id="7Pbh5oCqQY8hPfmPGfme-30" value="" style="endArrow=classic;startArrow=classic;html=1;rounded=0;fontColor=#000000;exitX=0.5;exitY=0;exitDx=0;exitDy=0;" edge="1" parent="7Pbh5oCqQY8hPfmPGfme-21" source="7Pbh5oCqQY8hPfmPGfme-29">
          <mxGeometry width="50" height="50" relative="1" as="geometry">
            <mxPoint x="310" y="90" as="sourcePoint" />
            <mxPoint x="360" y="40" as="targetPoint" />
          </mxGeometry>
        </mxCell>
        <mxCell id="7Pbh5oCqQY8hPfmPGfme-31" value="三中心每个中心670G" style="text;html=1;align=center;verticalAlign=middle;resizable=0;points=[];autosize=1;strokeColor=none;fillColor=none;fontColor=#000000;" vertex="1" parent="7Pbh5oCqQY8hPfmPGfme-21">
          <mxGeometry x="580" y="140" width="130" height="20" as="geometry" />
        </mxCell>
        <mxCell id="7Pbh5oCqQY8hPfmPGfme-81" value="私有云开放区" style="text;html=1;align=center;verticalAlign=middle;resizable=0;points=[];autosize=1;strokeColor=none;fillColor=none;fontColor=#000000;" vertex="1" parent="7Pbh5oCqQY8hPfmPGfme-21">
          <mxGeometry x="680" width="90" height="20" as="geometry" />
        </mxCell>
        <mxCell id="7Pbh5oCqQY8hPfmPGfme-32" value="" style="endArrow=classic;html=1;rounded=0;fontColor=#000000;exitX=0.486;exitY=1.042;exitDx=0;exitDy=0;exitPerimeter=0;entryX=0.5;entryY=0;entryDx=0;entryDy=0;" edge="1" parent="1" source="7Pbh5oCqQY8hPfmPGfme-15" target="7Pbh5oCqQY8hPfmPGfme-22">
          <mxGeometry width="50" height="50" relative="1" as="geometry">
            <mxPoint x="390" y="630" as="sourcePoint" />
            <mxPoint x="440" y="580" as="targetPoint" />
            <Array as="points">
              <mxPoint x="524" y="630" />
              <mxPoint x="390" y="630" />
            </Array>
          </mxGeometry>
        </mxCell>
        <mxCell id="7Pbh5oCqQY8hPfmPGfme-33" value="解密用户信息" style="text;html=1;align=center;verticalAlign=middle;resizable=0;points=[];autosize=1;strokeColor=none;fillColor=none;fontColor=#000000;" vertex="1" parent="1">
          <mxGeometry x="215" y="500" width="90" height="20" as="geometry" />
        </mxCell>
        <mxCell id="7Pbh5oCqQY8hPfmPGfme-34" value="未登录情况访问，直接走单点登录进行登录" style="text;html=1;align=center;verticalAlign=middle;resizable=0;points=[];autosize=1;strokeColor=none;fillColor=none;fontColor=#000000;" vertex="1" parent="1">
          <mxGeometry x="30" y="230" width="240" height="20" as="geometry" />
        </mxCell>
      </root>
    </mxGraphModel>
  </diagram>
</mxfile>
